<svg width="41" height="38" viewBox="0 0 41 38" fill="none" xmlns="http://www.w3.org/2000/svg">
<path d="M40.2123 24.5291L38.1012 24.5291L35.0853 20.8266L22.4686 20.8266L27.646 37.0249L24.7306 37.0249L14.3759 20.8266L2.51327 20.8266C1.80955 20.8266 1.21475 20.6029 0.728848 20.1556C0.242949 19.7082 -8.48108e-07 19.1605 -8.78869e-07 18.5126C-9.09629e-07 17.8647 0.242949 17.317 0.728848 16.8696C1.21475 16.4223 1.80955 16.1986 2.51327 16.1986L14.3759 16.1986L24.7306 0.000296551L27.646 0.000296434L22.4686 16.1986L35.0853 16.1986L38.1012 12.4961L40.2123 12.4961L38.3525 18.5126L40.2123 24.5291Z" fill="#313131"/>
</svg>
